<svg width="100" height="100" viewBox="0 0 100 100" fill="none" xmlns="http://www.w3.org/2000/svg">
<path d="M71.9519 35.7404C72.3095 36.0976 72.5932 36.5218 72.7868 36.9887C72.9803 37.4556 73.08 37.9561 73.08 38.4615C73.08 38.967 72.9803 39.4675 72.7868 39.9344C72.5932 40.4013 72.3095 40.8255 71.9519 41.1827L45.0289 68.1058C44.6717 68.4634 44.2475 68.747 43.7806 68.9406C43.3136 69.1342 42.8131 69.2338 42.3077 69.2338C41.8023 69.2338 41.3018 69.1342 40.8349 68.9406C40.3679 68.747 39.9438 68.4634 39.5866 68.1058L28.0481 56.5673C27.3264 55.8456 26.921 54.8668 26.921 53.8461C26.921 52.8255 27.3264 51.8467 28.0481 51.125C28.7698 50.4033 29.7486 49.9979 30.7692 49.9979C31.7899 49.9979 32.7687 50.4033 33.4904 51.125L42.3077 59.9471L66.5096 35.7404C66.8668 35.3828 67.291 35.0991 67.7579 34.9055C68.2248 34.712 68.7253 34.6124 69.2308 34.6124C69.7362 34.6124 70.2367 34.712 70.7036 34.9055C71.1705 35.0991 71.5947 35.3828 71.9519 35.7404ZM100 50C100 59.8891 97.0676 69.556 91.5735 77.7785C86.0794 86.0009 78.2705 92.4096 69.1342 96.194C59.9979 99.9783 49.9445 100.969 40.2455 99.0392C30.5465 97.11 21.6373 92.3479 14.6447 85.3553C7.65206 78.3627 2.89002 69.4536 0.960758 59.7545C-0.968502 50.0555 0.0216642 40.0021 3.80605 30.8658C7.59043 21.7295 13.999 13.9206 22.2215 8.42652C30.444 2.93245 40.1109 0 50 0C63.2565 0.0139991 75.9661 5.28633 85.3399 14.6601C94.7137 24.0339 99.986 36.7435 100 50ZM92.3077 50C92.3077 41.6323 89.8264 33.4526 85.1776 26.4951C80.5287 19.5376 73.9212 14.115 66.1905 10.9128C58.4597 7.71062 49.9531 6.87278 41.7462 8.50524C33.5393 10.1377 26.0008 14.1671 20.084 20.0839C14.1671 26.0008 10.1377 33.5393 8.50526 41.7462C6.87281 49.9531 7.71064 58.4597 10.9128 66.1904C14.115 73.9212 19.5377 80.5287 26.4951 85.1775C33.4526 89.8264 41.6323 92.3077 50 92.3077C61.2168 92.2949 71.9705 87.8335 79.902 79.902C87.8335 71.9705 92.295 61.2168 92.3077 50Z" fill="#404040"/>
</svg>
