<svg width="93" height="100" viewBox="0 0 93 100" fill="none" xmlns="http://www.w3.org/2000/svg">
<path d="M89.1662 22.3856L49.8702 0.88445C48.8203 0.304308 47.6403 0 46.4407 0C45.2412 0 44.0612 0.304308 43.0113 0.88445L3.71526 22.3946C2.59304 23.0086 1.65625 23.9126 1.00273 25.0123C0.349199 26.112 0.0029037 27.367 0 28.6462V71.3538C0.0029037 72.633 0.349199 73.888 1.00273 74.9877C1.65625 76.0874 2.59304 76.9914 3.71526 77.6054L43.0113 99.1156C44.0612 99.6957 45.2412 100 46.4407 100C47.6403 100 48.8203 99.6957 49.8702 99.1156L89.1662 77.6054C90.2884 76.9914 91.2252 76.0874 91.8788 74.9877C92.5323 73.888 92.8786 72.633 92.8815 71.3538V28.6507C92.881 27.3692 92.5358 26.1114 91.8822 25.0091C91.2285 23.9069 90.2904 23.0007 89.1662 22.3856ZM46.4407 7.13609L82.3162 26.7841L69.0226 34.0628L33.1426 14.4148L46.4407 7.13609ZM46.4407 46.4321L10.5653 26.7841L25.7032 18.4962L61.5786 38.1442L46.4407 46.4321ZM7.14473 33.0357L42.8684 52.5855V90.8947L7.14473 71.3583V33.0357ZM85.7368 71.3404L50.0131 90.8947V52.6034L64.3026 44.7843V60.7216C64.3026 61.669 64.6789 62.5777 65.3489 63.2476C66.0188 63.9176 66.9275 64.2939 67.8749 64.2939C68.8224 64.2939 69.731 63.9176 70.401 63.2476C71.0709 62.5777 71.4473 61.669 71.4473 60.7216V40.8726L85.7368 33.0357V71.336V71.3404Z" fill="#404040"/>
</svg>
