<svg width="97" height="100" viewBox="0 0 97 100" fill="none" xmlns="http://www.w3.org/2000/svg">
<path d="M93.4229 39.8799L53.4195 2.13668C53.4 2.11962 53.3816 2.10124 53.3645 2.08167C51.8917 0.742226 49.9724 0 47.9816 0C45.9908 0 44.0715 0.742226 42.5986 2.08167L42.5436 2.13668L2.58522 39.8799C1.77014 40.6294 1.11951 41.5399 0.674515 42.5539C0.229516 43.5678 -0.000168229 44.6631 9.2447e-08 45.7704V91.9993C9.2447e-08 94.1212 0.842926 96.1562 2.34334 97.6567C3.84376 99.1571 5.87877 100 8.00068 100H32.0027C34.1246 100 36.1596 99.1571 37.6601 97.6567C39.1605 96.1562 40.0034 94.1212 40.0034 91.9993V67.9973H56.0048V91.9993C56.0048 94.1212 56.8477 96.1562 58.3481 97.6567C59.8485 99.1571 61.8835 100 64.0054 100H88.0075C90.1294 100 92.1644 99.1571 93.6648 97.6567C95.1652 96.1562 96.0082 94.1212 96.0082 91.9993V45.7704C96.0083 44.6631 95.7786 43.5678 95.3336 42.5539C94.8886 41.5399 94.238 40.6294 93.4229 39.8799ZM88.0075 91.9993H64.0054V67.9973C64.0054 65.8754 63.1625 63.8404 61.6621 62.3399C60.1617 60.8395 58.1267 59.9966 56.0048 59.9966H40.0034C37.8815 59.9966 35.8465 60.8395 34.3461 62.3399C32.8456 63.8404 32.0027 65.8754 32.0027 67.9973V91.9993H8.00068V45.7704L8.05568 45.7204L48.0041 7.99218L87.9575 45.7104L88.0125 45.7604L88.0075 91.9993Z" fill="#404040"/>
</svg>
