<svg width="190" height="21" viewBox="0 0 190 21" fill="none" xmlns="http://www.w3.org/2000/svg">
<path d="M8.06339 4.70395H23.67C24.0168 4.70395 24.3058 4.44385 24.3058 4.09703V1.23583C24.3058 0.917917 24.0168 0.628906 23.67 0.628906H8.06339C3.61262 0.628906 0 4.24154 0 8.6923V12.7962C0 17.247 3.61262 20.8596 8.06339 20.8596H23.67C24.0168 20.8596 24.3058 20.5706 24.3058 20.2527V17.3915C24.3058 17.0447 24.0168 16.7846 23.67 16.7846H8.06339C5.86691 16.7846 4.07504 14.9927 4.07504 12.7962V8.6923C4.07504 6.49582 5.86691 4.70395 8.06339 4.70395Z" fill="black"/>
<path d="M51.0791 0.628906H28.0161C27.6982 0.628906 27.4092 0.889016 27.4092 1.23583V4.09703C27.4092 4.44385 27.6982 4.70395 28.0161 4.70395H51.0791C51.4259 4.70395 51.715 4.44385 51.715 4.09703V1.23583C51.715 0.889016 51.4259 0.628906 51.0791 0.628906ZM51.0791 16.7846H31.4842V12.7962H47.0041C47.3509 12.7962 47.611 12.5072 47.611 12.1604V9.32812C47.611 8.98131 47.3509 8.6923 47.0041 8.6923H28.0161C27.6982 8.6923 27.4092 8.98131 27.4092 9.32812V20.2527C27.4092 20.5706 27.6982 20.8596 28.0161 20.8596H51.0791C51.4259 20.8596 51.715 20.5706 51.715 20.2527V17.3915C51.715 17.0447 51.4259 16.7846 51.0791 16.7846Z" fill="black"/>
<path d="M54.9072 20.2527C54.9072 20.5706 55.1962 20.8596 55.5141 20.8596H58.3753C58.7222 20.8596 58.9823 20.5706 58.9823 20.2527V12.7962H69.3288C70.3115 12.7962 71.2363 13.3165 71.7276 14.1835L75.3114 20.5417C75.427 20.744 75.6293 20.8596 75.8605 20.8596H79.1552C79.6176 20.8596 79.9066 20.3394 79.6754 19.9348L75.3692 12.3338C77.5945 11.4379 79.1552 9.24142 79.1552 6.69813C79.1552 3.34561 76.4096 0.628906 73.0571 0.628906H55.5141C55.1962 0.628906 54.9072 0.889016 54.9072 1.23583V4.09703C54.9072 4.44385 55.1962 4.70395 55.5141 4.70395H73.0571C74.1553 4.70395 75.0512 5.59989 75.0512 6.69813C75.0512 7.79637 74.1553 8.6923 73.0571 8.6923H55.5141C55.1962 8.6923 54.9072 8.98131 54.9072 9.29922V20.2527Z" fill="black"/>
<path d="M105.445 0.628906H82.1792C81.8613 0.628906 81.5723 0.889016 81.5723 1.23583V4.09703C81.5723 4.44385 81.8613 4.70395 82.1792 4.70395H91.7743V20.2527C91.7743 20.5706 92.0344 20.8596 92.3813 20.8596H95.2425C95.5893 20.8596 95.8494 20.5706 95.8494 20.2527V4.70395H105.445C105.762 4.70395 106.051 4.44385 106.051 4.09703V1.23583C106.051 0.889016 105.762 0.628906 105.445 0.628906Z" fill="black"/>
<path d="M137.021 0.628906H134.16C133.842 0.628906 133.553 0.917917 133.553 1.23583V13.0853C133.553 15.1372 131.906 16.7846 129.883 16.7846H128.9C126.877 16.7846 125.229 15.1372 125.229 13.0853V1.23583C125.229 0.889016 124.94 0.628906 124.594 0.628906H121.732C121.414 0.628906 121.125 0.889016 121.125 1.23583V13.0853C121.125 14.4147 121.472 15.6864 122.05 16.7846H116.386C114.334 16.7846 112.686 15.1372 112.686 13.0853V1.23583C112.686 0.889016 112.426 0.628906 112.079 0.628906H109.218C108.9 0.628906 108.611 0.889016 108.611 1.23583V13.0853C108.611 17.3626 112.108 20.8596 116.386 20.8596H129.883C134.16 20.8596 137.657 17.3915 137.657 13.0853V1.23583C137.657 0.889016 137.368 0.628906 137.021 0.628906Z" fill="black"/>
<path d="M166.433 19.9641L157.733 3.17256C156.838 1.4385 155.161 0.195751 153.225 0.022345C150.913 -0.179962 148.803 1.00498 147.763 3.02805L138.977 19.9641C138.774 20.3687 139.063 20.86 139.526 20.86H142.763C142.994 20.86 143.196 20.7444 143.312 20.5421L151.375 4.90662C151.751 4.1841 152.445 4.09739 152.705 4.09739C152.965 4.09739 153.658 4.1841 154.034 4.90662L162.098 20.5421C162.213 20.7444 162.415 20.86 162.647 20.86H165.884C166.346 20.86 166.635 20.3687 166.433 19.9641Z" fill="black"/>
<path d="M189.065 16.7846H174.932C173.372 16.7846 172.071 15.484 172.071 13.9234V1.23583C172.071 0.917917 171.811 0.628906 171.464 0.628906H168.603C168.285 0.628906 167.996 0.917917 167.996 1.23583V13.9234C167.996 17.7383 171.117 20.8596 174.932 20.8596H189.065C189.412 20.8596 189.672 20.5995 189.672 20.2527V17.3915C189.672 17.0447 189.412 16.7846 189.065 16.7846Z" fill="black"/>
</svg>
