<svg width="100" height="100" viewBox="0 0 100 100" fill="none" xmlns="http://www.w3.org/2000/svg">
<rect width="100" height="100" rx="50" fill="url(#paint0_linear_1581_234)"/>
<path d="M24.0678 42.0881H43.554C43.987 42.0881 44.3479 41.7633 44.3479 41.3303V37.7578C44.3479 37.3609 43.987 37 43.554 37H24.0678C18.5107 37 14 41.5107 14 47.0679V52.192C14 57.7492 18.5107 62.2598 24.0678 62.2598H43.554C43.987 62.2598 44.3479 61.899 44.3479 61.502V57.9296C44.3479 57.4966 43.987 57.1718 43.554 57.1718H24.0678C21.3253 57.1718 19.088 54.9345 19.088 52.192V47.0679C19.088 44.3254 21.3253 42.0881 24.0678 42.0881Z" fill="white"/>
<path d="M85.9925 37H82.4201C82.0231 37 81.6623 37.3609 81.6623 37.7578V52.5528C81.6623 55.1149 79.6054 57.1718 77.0794 57.1718H75.8525C73.3265 57.1718 71.2697 55.1149 71.2697 52.5528V37.7578C71.2697 37.3248 70.9088 37 70.4758 37H66.9033C66.5064 37 66.1455 37.3248 66.1455 37.7578V52.5528C66.1455 54.2128 66.5785 55.8005 67.3002 57.1718H60.2275C57.6654 57.1718 55.6085 55.1149 55.6085 52.5528V37.7578C55.6085 37.3248 55.2838 37 54.8508 37H51.2783C50.8814 37 50.5205 37.3248 50.5205 37.7578V52.5528C50.5205 57.8935 54.8868 62.2598 60.2275 62.2598H77.0794C82.4201 62.2598 86.7864 57.9296 86.7864 52.5528V37.7578C86.7864 37.3248 86.4256 37 85.9925 37Z" fill="white"/>
<defs>
<linearGradient id="paint0_linear_1581_234" x1="0" y1="0" x2="118.694" y2="66.7656" gradientUnits="userSpaceOnUse">
<stop stop-color="#313437"/>
<stop offset="0.635417" stop-color="#070D0F"/>
</linearGradient>
</defs>
</svg>
