<svg width="30" height="30" viewBox="0 0 30 30" fill="none" xmlns="http://www.w3.org/2000/svg">
<path d="M30 1.66662V23.3326C30 23.7746 29.8244 24.1985 29.5119 24.5111C29.1993 24.8236 28.7754 24.9992 28.3334 24.9992C27.8914 24.9992 27.4675 24.8236 27.1549 24.5111C26.8424 24.1985 26.6668 23.7746 26.6668 23.3326V5.68941L2.84667 29.5116C2.53395 29.8243 2.1098 30 1.66754 30C1.22528 30 0.801136 29.8243 0.488412 29.5116C0.175687 29.1989 0 28.7747 0 28.3325C0 27.8902 0.175687 27.4661 0.488412 27.1533L24.3106 3.33323H6.66739C6.22537 3.33323 5.80146 3.15764 5.48891 2.84509C5.17636 2.53254 5.00077 2.10863 5.00077 1.66662C5.00077 1.2246 5.17636 0.800692 5.48891 0.488141C5.80146 0.17559 6.22537 0 6.66739 0H28.3334C28.7754 0 29.1993 0.17559 29.5119 0.488141C29.8244 0.800692 30 1.2246 30 1.66662Z" fill="black"/>
</svg>
