<svg width="24" height="30" viewBox="0 0 24 30" fill="none" xmlns="http://www.w3.org/2000/svg">
<path d="M23.6484 18.3838L12.849 29.6334C12.7375 29.7496 12.6052 29.8418 12.4595 29.9047C12.3138 29.9676 12.1577 30 12 30C11.8423 30 11.6862 29.9676 11.5405 29.9047C11.3948 29.8418 11.2625 29.7496 11.151 29.6334L0.351648 18.3838C0.126491 18.1492 0 17.8311 0 17.4994C0 17.1677 0.126491 16.8496 0.351648 16.6151C0.576804 16.3805 0.882181 16.2488 1.2006 16.2488C1.51902 16.2488 1.8244 16.3805 2.04955 16.6151L10.8001 25.732V1.24996C10.8001 0.918449 10.9265 0.600518 11.1515 0.366105C11.3765 0.131692 11.6818 0 12 0C12.3182 0 12.6234 0.131692 12.8485 0.366105C13.0735 0.600518 13.1999 0.918449 13.1999 1.24996V25.732L21.9504 16.6151C22.1756 16.3805 22.481 16.2488 22.7994 16.2488C23.1178 16.2488 23.4232 16.3805 23.6484 16.6151C23.8735 16.8496 24 17.1677 24 17.4994C24 17.8311 23.8735 18.1492 23.6484 18.3838Z" fill="black"/>
</svg>
