<svg width="17" height="30" viewBox="0 0 17 30" fill="none" xmlns="http://www.w3.org/2000/svg">
<path d="M15.9647 15.9647L2.32905 29.6004C2.20236 29.7271 2.05196 29.8276 1.88643 29.8961C1.7209 29.9647 1.54349 30 1.36433 30C1.18516 30 1.00775 29.9647 0.84222 29.8961C0.676693 29.8276 0.52629 29.7271 0.399601 29.6004C0.272912 29.4737 0.172416 29.3233 0.103852 29.1578C0.0352887 28.9923 0 28.8148 0 28.6357C0 28.4565 0.0352887 28.2791 0.103852 28.1136C0.172416 27.948 0.272912 27.7976 0.399601 27.6709L13.0723 15L0.399601 2.32905C0.14374 2.07319 -2.69593e-09 1.72617 0 1.36433C2.69593e-09 1.00248 0.14374 0.655462 0.399601 0.399602C0.655462 0.143741 1.00248 2.69593e-09 1.36433 0C1.72617 -2.69593e-09 2.07319 0.143741 2.32905 0.399602L15.9647 14.0353C16.0915 14.1619 16.1921 14.3123 16.2607 14.4778C16.3293 14.6434 16.3646 14.8208 16.3646 15C16.3646 15.1792 16.3293 15.3566 16.2607 15.5222C16.1921 15.6877 16.0915 15.8381 15.9647 15.9647Z" fill="black"/>
</svg>
